<?xml version="1.0" encoding="UTF-8" standalone="no"?>
<!-- Created with Inkscape (http://www.inkscape.org/) -->

<svg
   version="1.1"
   id="svg9"
   width="340.07657"
   height="280.67072"
   viewBox="0 0 340.07657 280.67071"
   sodipodi:docname="pcsx2-vector.svg"
   inkscape:version="1.1 (c68e22c387, 2021-05-23)"
   xmlns:inkscape="http://www.inkscape.org/namespaces/inkscape"
   xmlns:sodipodi="http://sodipodi.sourceforge.net/DTD/sodipodi-0.dtd"
   xmlns="http://www.w3.org/2000/svg"
   xmlns:svg="http://www.w3.org/2000/svg">
  <defs
     id="defs13" />
  <sodipodi:namedview
     id="namedview11"
     pagecolor="#ffffff"
     bordercolor="#666666"
     borderopacity="1.0"
     inkscape:pageshadow="2"
     inkscape:pageopacity="0.0"
     inkscape:pagecheckerboard="0"
     showgrid="false"
     inkscape:zoom="5.3203123"
     inkscape:cx="112.0235"
     inkscape:cy="135.89428"
     inkscape:window-width="3840"
     inkscape:window-height="2054"
     inkscape:window-x="2869"
     inkscape:window-y="-11"
     inkscape:window-maximized="1"
     inkscape:current-layer="g15" />
  <g
     inkscape:groupmode="layer"
     inkscape:label="Image"
     id="g15"
     transform="translate(0.12344728,-34.842334)">
    <path
       style="fill:#000000;stroke-width:1.33333"
       d="m 261.83354,174.16528 c -17.96667,-13.13763 -33.26229,-24.80679 -33.99028,-25.93147 -0.90911,-1.40453 -0.79517,-2.89103 0.36381,-4.74688 1.26062,-2.01855 1.3165,-3.39507 0.22094,-5.44212 -0.80656,-1.50708 -1.15512,-3.55153 -0.77458,-4.54324 0.38934,-1.01459 -1.39634,-0.38595 -4.08338,1.43753 -6.39982,4.34303 -9.39902,4.09407 -17.16848,-1.42516 -7.19887,-5.11389 -8.80895,-8.9795 -7.57426,-18.18485 0.56428,-4.20705 1.90688,-6.25516 6.64627,-10.13873 5.46781,-4.48046 5.75044,-5.00465 3.56137,-6.605332 -1.30777,-0.95626 -3.66786,-1.73866 -5.24466,-1.73866 -1.59704,0 -12.66579,7.361122 -24.98946,16.618922 -12.1674,9.1404 -23.60673,16.99141 -25.42073,17.44671 -4.42129,1.10966 -6.22107,0.0269 -30.54578,-18.37535 -22.79111,-17.242112 -23.570326,-18.287312 -21.5239,-28.870554 1.18979,-6.153065 1.18979,-6.153065 28.52312,-24.569115 15.03333,-10.128828 29.82888,-19.903927 32.87899,-21.722443 6.73458,-4.015251 10.65621,-3.378288 17.20049,2.793752 4.22877,3.988255 4.58719,4.94621 4.58719,12.26059 0,7.934311 0,7.934311 -19.52495,21.053672 -17.75047,11.927034 -19.30261,13.281942 -17.07849,14.908254 3.77646,2.761423 5.05121,2.324945 16.88526,-5.781594 6.07832,-4.163766 16.61636,-11.363766 23.41786,-16 6.80149,-4.636233 13.75993,-8.429515 15.46321,-8.429515 1.70327,0 8.13841,3.185848 14.30032,7.079663 19.65532,12.420547 37.20345,23.836091 37.20345,24.201874 0,0.194971 0.59406,3.486936 1.32013,7.315484 0.90306,4.761852 0.87656,7.789812 -0.0839,9.584482 -1.08939,2.03554 -0.14516,1.71155 4.21327,-1.44567 3.08946,-2.23804 7.04354,-4.06916 8.78681,-4.06916 2.87607,0 61.29708,38.0432 67.56279,43.99624 1.75476,1.6672 2.58657,4.69627 2.8847,10.50469 0.41892,8.16195 0.41892,8.16195 -18.06522,25.49718 -16.12855,15.12602 -19.04496,17.32708 -22.88471,17.2713 -3.55075,-0.0516 -10.70896,-4.67674 -37.06723,-23.9505 z"
       id="path3210" />
    <path
       style="fill:#000000;stroke-width:1.33333"
       d="M 83.833539,238.23324 C 82.366873,237.63597 70.569814,227.49006 57.617852,215.68677 34.068831,194.22622 34.068831,194.22622 34.068831,184.7607 c 0,-9.46552 0,-9.46552 15.716785,-21.02326 8.644231,-6.35675 19.738991,-14.43878 24.655023,-17.96006 7.394002,-5.29621 8.661363,-6.73594 7.335643,-8.33333 -3.385787,-4.07963 -8.197252,-1.7786 -35.459127,16.95788 -20.070384,13.79392 -28.542284,18.88888 -31.408464,18.88888 -2.83039,0 -5.4794596,-1.55548 -9.4999894,-5.5782 -5.32105997,-5.32397 -5.57301997,-5.94225 -5.52823997,-13.56545 0.0362,-6.16832 0.64351,-8.552 2.66666997,-10.46726 1.44086,-1.36401 18.3678894,-13.05956 37.6156394,-25.99011 29.119823,-19.562572 35.797355,-23.510092 39.769078,-23.510092 4.082664,0 7.935821,2.45931 26.635031,17.000002 19.30352,15.01062 22.03706,17.61848 23.3591,22.28518 1.58414,5.59188 0.95052,13.1849 -1.32951,15.93216 -0.75136,0.90533 -11.54351,9.1018 -23.98256,18.21436 -12.439043,9.11257 -22.648663,16.8683 -22.688041,17.23497 -0.03937,0.36667 5.316101,5.37419 11.901064,11.12781 9.160987,8.00446 12.277567,11.60535 13.271027,15.33334 1.30308,4.88984 0.0496,14.25304 -2.16077,16.14077 -11.840686,10.11225 -16.681055,12.58591 -21.103651,10.78495 z"
       id="path3208" />
    <path
       style="fill:#000000;stroke-width:1.33333"
       d="m 201.01335,277.87899 c -6.1959,-4.77987 -50.3815,-43.13082 -52.15574,-45.26865 -1.02072,-1.22989 -1.42415,-4.87608 -1.09072,-9.85789 0.29102,-4.34835 0.57508,-8.65576 0.63122,-9.57204 0.0561,-0.91628 10.31118,-10.14387 22.78894,-20.50575 23.991,-19.92281 24.29845,-20.3826 15.94349,-23.84334 -4.94033,-2.04635 -4.33187,-2.4304 -34.41501,21.72161 -27.08535,21.74524 -27.96094,22.03953 -38.68051,13.00064 -5.50188,-4.63924 -6.73805,-6.52545 -7.46837,-11.39552 -0.61422,-4.09595 -0.2626,-7.02064 1.17928,-9.80893 1.25972,-2.43603 14.8263,-13.73314 35.07102,-29.20419 35.51598,-27.14135 37.24983,-28.3106 41.92894,-28.2752 3.45197,0.0261 51.31242,34.99137 54.8925,40.10264 1.30134,1.85792 2.19515,5.7524 2.19515,9.56461 0,7.59558 1.23975,6.20196 -25.67399,28.86047 -10.81264,9.10309 -19.65934,16.99976 -19.65934,17.54815 0,1.7973 8.1497,7.90077 10.54957,7.90077 1.28973,0 13.99371,-9.89333 28.23104,-21.9852 28.87039,-24.51981 29.40712,-24.76583 39.25316,-17.99157 8.27546,5.69368 9.96623,8.65357 9.96623,17.44713 0,7.54368 0,7.54368 -27,32.75731 -46.4544,43.38092 -44.57572,41.77233 -48.78656,41.77233 -2.1196,0 -5.58474,-1.33532 -7.7003,-2.96738 z"
       id="path3206" />
    <path
       style="fill:#000000;stroke-width:1.33333"
       d="m 134.21711,285.40491 c -18.17763,-16.55947 -33.86392,-31.24516 -34.858416,-32.63487 -1.34683,-1.88204 -1.46662,-3.50656 -0.46952,-6.36686 0.73627,-2.11206 0.8735,-4.5928 0.30495,-5.51273 -1.84866,-2.99119 0.16672,-6.63791 7.133816,-12.90829 9.09137,-8.18223 11.89448,-9.39667 15.78431,-6.83851 3.94925,2.59724 64.98648,56.35626 68.05462,59.93964 1.645,1.92126 2.33334,5.02316 2.33334,10.51504 0,7.78987 0,7.78987 -9.36758,15.8523 -5.91646,5.09214 -10.56448,8.06241 -12.61641,8.06241 -2.37125,0 -12.17663,-8.13301 -36.29911,-30.10813 z"
       id="path2883" />
  </g>
</svg>
